<?xml version="1.0" encoding="UTF-8"?>
<svg id="Layer_9" data-name="Layer 9" xmlns="http://www.w3.org/2000/svg" viewBox="0 0 867.01 858.3">
  <defs>
    <style>
      .cls-1 {
        fill: #fff;
        stroke-width: 0px;
      }
    </style>
  </defs>
  <path class="cls-1" d="M55.12,156.4h.02s523.79.17,703.21.49c32.48.06,57.12,28.44,51.71,59.54-27.47,157.86-54.95,315.71-82.42,473.57-4.27,24.56-26.17,42.53-51.81,42.53-.03,0-.07,0-.1,0-180.41-.33-360.83-.65-541.24-.98-27.66-.05-49.6-20.63-52.19-45.91,0-.01,0-.03,0-.04-.46-4.51-.31-9.16.54-13.88,18.66-103.49,70.52-393.62,70.52-393.62.37-2.11-.29-4.28-1.78-5.82l-101.2-104.55c-4.09-4.23-1.12-11.33,4.74-11.33M55.15,131.35h-.03c-12.73,0-24.17,7.58-29.15,19.32-4.99,11.76-2.47,25.29,6.41,34.47l94.66,97.8c-8.98,50.2-52.28,292.4-68.86,384.32-1.2,6.63-1.49,13.39-.88,20.08h0s0,.04,0,.04v.09s.08.71.08.71c3.99,38.92,37.12,68.33,77.06,68.4l541.24.98h.14c37.93,0,70.1-26.61,76.48-63.28l82.42-473.57c3.79-21.79-2.25-44.08-16.57-61.14-14.76-17.58-36.54-27.69-59.77-27.73-177.39-.32-698.01-.49-703.25-.49h0Z"/>
  <path class="cls-1" d="M616.14,203.76l-7.65,45.94c-.2,1.22-1.26,2.11-2.5,2.11l-31.77-.09c-14.78-.04-29.01,6.02-38.94,16.97-9.01,9.94-15.73,22.95-15.78,39.66-.02,7.83.65,14.24,1.82,19.54,3.21,14.57,16.18,24.9,31.1,24.94,11.31.03,26.48.07,32.85.09,1.57,0,2.75,1.43,2.47,2.97l-8.16,45.37c-.22,1.21-1.27,2.08-2.49,2.08l-27.09-.07c-33.9-.09-64.38-21.64-74.77-53.9-3.56-11.07-5.34-23.26-5.31-36.23.09-31.89,16.96-76.03,59.26-101.49,12.16-7.32,26.17-10.97,40.36-10.94l44.13.12c1.56,0,2.74,1.4,2.48,2.94Z"/>
  <path class="cls-1" d="M449.89,202.75c-.08-1.33-1.18-2.37-2.51-2.38l-61.08-.17c-1.02,0-1.94.61-2.33,1.54l-60.56,143.72,14.22,57.22,14.39.04c1.08,0,2.04-.68,2.39-1.69l12.47-35.76c.35-1.02,1.31-1.7,2.39-1.69l36.89.1c1.39,0,2.52,1.14,2.52,2.53l-.09,34.15c0,1.39,1.12,2.53,2.52,2.53l47.82.13c1.45,0,2.61-1.22,2.53-2.67l-11.55-197.59ZM408.78,326.57c0,1.39-1.14,2.52-2.53,2.52l-23.33-.06c-1.73,0-2.95-1.72-2.38-3.35l23.51-67.52c.35-1.02,1.31-1.7,2.39-1.69,1.39,0,2.52,1.14,2.52,2.53l-.18,67.58Z"/>
  <path class="cls-1" d="M754.5,204.12l-7.4,45.94c-.2,1.23-1.26,2.13-2.5,2.12l-65.53-.18c-1.2,0-2.24.84-2.48,2.01l-4.8,23.18c-.32,1.56.87,3.03,2.47,3.04l43.49.12c1.56,0,2.75,1.42,2.48,2.96l-6.44,37.01c-.21,1.21-1.26,2.09-2.49,2.09l-44.75-.12c-1.22,0-2.27.87-2.49,2.08l-4.65,25.78c-.28,1.55.91,2.97,2.48,2.97l66.05.18c1.56,0,2.75,1.42,2.48,2.96l-7.9,45.37c-.21,1.21-1.26,2.09-2.49,2.09l-116.78-.32c-1.57,0-2.75-1.42-2.48-2.96l34.82-197.47c.21-1.21,1.27-2.09,2.49-2.09l113.95.31c1.55,0,2.73,1.39,2.49,2.93Z"/>
  <path class="cls-1" d="M378.87,427.5l-5.38,33.45c-.14.89-.92,1.55-1.82,1.55l-47.71-.13c-.87,0-1.63.61-1.8,1.47l-3.49,16.88c-.24,1.14.63,2.21,1.79,2.21l31.66.09c1.14,0,2,1.03,1.81,2.15l-4.69,26.95c-.15.88-.92,1.53-1.82,1.52l-32.58-.09c-.89,0-1.66.63-1.81,1.51l-3.38,18.77c-.2,1.13.66,2.16,1.8,2.16l48.08.13c1.14,0,2,1.03,1.81,2.15l-5.75,33.03c-.15.88-.92,1.52-1.82,1.52l-85.02-.23c-1.14,0-2-1.03-1.8-2.16l25.35-143.77c.16-.88.92-1.52,1.81-1.52l82.96.22c1.13,0,1.99,1.01,1.81,2.13Z"/>
  <path class="cls-1" d="M473.32,427.36l8.41,143.86c.06,1.06-.78,1.95-1.84,1.94l-34.82-.09c-1.01,0-1.84-.83-1.83-1.84l.07-24.86c0-1.01-.82-1.84-1.83-1.84l-26.86-.07c-.78,0-1.48.49-1.74,1.23l-9.08,26.04c-.26.74-.96,1.23-1.74,1.23l-35.59-.1c-1.31,0-2.2-1.34-1.69-2.55l60.54-143.67c.29-.68.96-1.13,1.7-1.12l44.47.12c.97,0,1.77.76,1.83,1.73ZM441.69,466.46h0c-.78,0-1.48.49-1.74,1.23l-17.12,49.16c-.42,1.19.47,2.44,1.73,2.44l16.99.05c1.01,0,1.84-.82,1.84-1.83l.13-49.2c0-1.01-.82-1.84-1.83-1.84Z"/>
  <path class="cls-1" d="M519.67,425.75l35.92.1c17.62.05,34.35,8.53,44.14,23.18,7.58,11.35,11.23,25.04,11.19,38.66-.05,19.78-9.17,47.58-30.19,67.41-12.69,11.97-29.71,18.25-47.15,18.2l-39.25-.11c-1.14,0-2-1.03-1.8-2.16l25.35-143.77c.16-.88.92-1.52,1.81-1.52ZM535.75,537.01h4.84c4.52.03,8.95-1.36,12.59-4.03,11.3-8.29,22.83-22.19,22.9-45.38.03-11.02-4.2-17.32-9.59-22.1-3.25-2.88-7.5-4.39-11.85-4.4l-5.91-.02c-.89,0-1.66.64-1.81,1.51l-12.97,72.25c-.2,1.12.66,2.16,1.8,2.16Z"/>
  <path class="cls-1" d="M663.9,573.65l-33.83-.09c-1.14,0-2-1.03-1.81-2.15l9.57-55.66c.06-.33.02-.66-.1-.97-9.91-25.21-16.24-51.46-19.73-86.72-.11-1.08.75-2.03,1.84-2.03l34.22.09c.97,0,1.77.76,1.83,1.73.92,15.67,2.49,31.12,5.43,44.26.36,1.62,2.53,1.96,3.37.54,8.63-14.6,15.76-29.84,21.7-45.26.27-.71.95-1.17,1.71-1.17l37.16.1c1.35,0,2.24,1.43,1.65,2.64-17.38,36.09-33.8,65.08-51.58,87.93-.18.24-.3.51-.35.81l-9.26,54.44c-.15.89-.92,1.53-1.82,1.53Z"/>
  <g>
    <path class="cls-1" d="M236.92,654.28c.09-32.4,20.55-58.18,47.36-58.1,21.65.06,36.26,18.53,36.19,43.67-.09,31.7-22.22,57.61-47.08,57.55-23.32-.06-36.54-18.25-36.47-43.11ZM260.53,651.83c-.04,14.52,7.9,22.09,14.6,22.1,7.54.02,21.95-10.83,22.01-32.62.04-14.24-7.62-21.53-14.6-21.54-8.94-.02-21.96,11.25-22.01,32.06Z"/>
    <path class="cls-1" d="M340.86,597.69l25.47.07c4.8.01,9.55,1.24,13.64,3.75,13.3,8.16,19.58,22.84,19.54,37.4-.03,12.1-5.17,28.72-16.87,41.58-9.12,10.02-22.27,15.43-35.82,15.39l-21.99-.06c-2.29,0-4.02-2.07-3.62-4.32l16-90.76c.31-1.76,1.85-3.05,3.64-3.04ZM352.42,671.73h1.24c2.32,0,4.58-.7,6.49-2.02,7.81-5.43,16.13-14.8,16.17-30.87.02-7.96-3.3-12.22-7.31-15.5-1.72-1.4-3.9-2.13-6.12-2.13h-2.7c-1.79-.01-3.32,1.27-3.64,3.03l-7.75,43.16c-.41,2.26,1.33,4.33,3.62,4.34Z"/>
    <path class="cls-1" d="M471.21,663.23c-3.78,20.74-16.53,32.46-37.28,33.47-18.98.93-33.98-16.02-30.53-34.71.03-.16.06-.32.09-.49l10.94-61.16c.31-1.76,1.85-3.04,3.64-3.04l16.68.05c2.29,0,4.02,2.08,3.62,4.33l-11.14,62.4c-.14.84-.14,1.82-.15,2.51-.01,4.05,2.64,5.87,7.66,5.89,5.58.02,11.04-2.2,12.31-8.35l11.5-63.68c.32-1.76,1.85-3.03,3.64-3.03l16.53.04c2.29,0,4.02,2.08,3.62,4.34l-11.12,61.41Z"/>
    <path class="cls-1" d="M503.39,597.54l16.54.04c2.29,0,4.02,2.07,3.62,4.33l-11.52,65.07c-.4,2.25,1.33,4.32,3.62,4.33l24.25.07c2.27,0,3.99,2.04,3.63,4.28l-2.78,17.06c-.29,1.79-1.84,3.1-3.65,3.09l-49.73-.13c-2.29,0-4.02-2.07-3.62-4.32l16-90.76c.31-1.76,1.85-3.05,3.64-3.04Z"/>
    <path class="cls-1" d="M626.4,602.13l-2.79,17.34c-.29,1.79-1.84,3.1-3.65,3.1l-27.64-.07c-1.75,0-3.26,1.22-3.62,2.94l-1.31,6.31c-.47,2.28,1.27,4.43,3.6,4.43l15.14.04c2.28,0,4.01,2.07,3.62,4.32l-2.26,13.01c-.31,1.77-1.85,3.06-3.64,3.05l-17.54-.05c-1.79,0-3.32,1.27-3.64,3.03l-1.36,7.57c-.41,2.26,1.32,4.33,3.62,4.34l26.14.07c2.28,0,4.01,2.07,3.62,4.32l-2.97,17.06c-.31,1.77-1.85,3.06-3.64,3.05l-51.58-.14c-2.29,0-4.02-2.07-3.62-4.32l16-90.76c.31-1.76,1.85-3.05,3.64-3.04l50.26.14c2.26,0,3.99,2.03,3.63,4.27Z"/>
    <path class="cls-1" d="M629.86,671.62l27.03.07c2.08,0,3.78-1.68,3.79-3.76h0c.03-12.15-27.6-17.95-27.55-38.2.02-7.19,2.35-13.71,6.53-19.5,5.65-7.82,14.86-12.28,24.51-12.26l21.95.06c2.27,0,4,2.05,3.62,4.29l-2.89,17.34c-.3,1.78-1.84,3.08-3.64,3.08l-21.22-.06c-2.35,0-4.28,1.91-4.29,4.26v.05c-.03,9.78,27.6,17.95,27.54,39.45,0,.6-.02,1.2-.05,1.79-.91,15.83-14.58,27.92-30.43,27.87l-27.81-.08c-2.28,0-4-2.05-3.62-4.3l2.87-17.06c.3-1.78,1.84-3.08,3.64-3.07Z"/>
    <path class="cls-1" d="M159.78,646.31l-8.61,46.45c-.32,1.75-1.85,3.02-3.63,3.01l-15.87-.04c-2.29,0-4.02-2.07-3.62-4.32,5.2-30.05,10.4-60.09,15.59-90.14.37-2.12,2.21-3.66,4.36-3.66l17.73.04c1.56,0,2.95.99,3.47,2.47l12.1,34.59c.48,1.38,2.34,1.63,3.16.41l24.25-35.73c.69-1.01,1.83-1.62,3.06-1.62l17.68.05c2.29,0,4.02,2.07,3.62,4.32l-16,90.76c-.31,1.76-1.85,3.05-3.64,3.04l-16.24-.04c-2.29,0-4.02-2.08-3.62-4.34l7.84-43.48c.34-1.88-2.12-2.91-3.22-1.34l-18.64,26.71c-1.7,2.44-5.44,1.96-6.48-.83l-9.86-26.61c-.63-1.7-3.1-1.49-3.43.29Z"/>
  </g>
  <path class="cls-1" d="M305.93,323.67c-.29-1.12.02-2.3.79-3.15,16.45-18.35,24.54-39.83,24.54-64.59,0-13.09-2.48-24.85-7.37-35.28-.04-.08-.07-.16-.11-.23-6.09-12.88-19.35-20.84-33.6-20.84h-124.01c-1.91,0-2.89,2.3-1.55,3.67l15.74,16.16,23.09,23.7c.77.79,1.12,1.91.93,3l-27.15,156.63h46.81c1.68,0,3.11-1.2,3.4-2.85l1.52-8.58,9.31-52.48c.29-1.65,1.73-2.85,3.4-2.85h14.75c1.63,0,3.04,1.14,3.38,2.73l13.22,61.3c.34,1.59,1.75,2.73,3.38,2.73h45.35c2.26,0,3.91-2.13,3.35-4.32l-19.18-74.75ZM263.89,294.17c-3.58,2.28-8.04,3.57-12.62,3.85l-5.09.3c-1.19.07-2.14-.7-1.99-1.6l10-58.19c.12-.71.89-1.26,1.82-1.32l6.16-.37c4.63-.27,9.19.72,12.78,2.87,5.74,3.44,10.35,8.16,10.85,16.8,1.07,18.56-10.45,30.37-21.92,37.66Z"/>
  <path class="cls-1" d="M242.61,515.22c-.21-.81.02-1.67.58-2.3,11.99-13.38,17.89-29.04,17.89-47.09,0-9.55-1.81-18.12-5.38-25.72-1.18-2.51-4.49-6.7-8.79-9.48-5.16-3.34-19.16-6.07-25.3-6.07-19.17-.06-23.68.07-42.85.02-3.01,0-5.58,2.16-6.07,5.13-7.97,47.72-15.94,95.44-23.9,143.16h34.13c1.22,0,2.27-.88,2.48-2.08l1.11-6.25,6.79-38.26c.21-1.2,1.26-2.08,2.48-2.08h10.76c1.19,0,2.21.83,2.46,1.99l9.64,44.69c.25,1.16,1.28,1.99,2.46,1.99h33.06c1.65,0,2.85-1.55,2.44-3.15l-13.99-54.5ZM211.96,493.71c-2.61,1.66-5.86,2.61-9.2,2.8l-3.71.22c-.87.05-1.56-.51-1.45-1.17l7.29-42.42c.09-.52.65-.92,1.32-.96l4.49-.27c3.37-.2,6.7.53,9.32,2.09,4.19,2.51,7.54,5.95,7.91,12.25.78,13.53-7.62,22.14-15.98,27.46Z"/>
</svg>