<?xml version="1.0" encoding="UTF-8"?>
<svg id="Layer_13" data-name="Layer 13" xmlns="http://www.w3.org/2000/svg" viewBox="0 0 873 858.3">
  <defs>
    <style>
      .cls-1 {
        fill: #fff;
        stroke-width: 0px;
      }
    </style>
  </defs>
  <path class="cls-1" d="M13.7,676.89h0s14.53,0,36.35.01c23.43,0,55.27.03,86.53.05,215.44,0,698.37.06,714.32.09,9.6.02,16.97,8.11,16,17.24-3.53,20.28-7.06,40.57-10.59,60.85-1.31,7.53-8.03,13.04-15.89,13.04-.01,0-.02,0-.03,0-6.39-.01-14.9-.02-23.42-.02-17.03,0-34.07.02-34.07.02,0,0-706.83-.26-730.04-.3-8.48-.02-15.21-6.33-16.01-14.08,0,0,0,0,0-.01-.01-.15-.02-.3-.03-.45,3.93-21.95,7-39.12,7-39.12.08-.46,0-.93-.22-1.33-.09-.16-.19-.32-.32-.46l-31.04-32.07c-1.26-1.3-.34-3.47,1.45-3.47M13.71,670.89h0c-3.23,0-6.13,1.92-7.39,4.9-1.27,2.99-.63,6.42,1.63,8.75l29.63,30.61c-.91,5.11-3.5,19.59-6.64,37.13l-.13.74.05.75v.07c0,.09.01.18.02.27v.08s.02.21.02.21h0c1.14,11.09,10.58,19.46,21.97,19.48,22.95.04,722.98.3,730.05.3,0,0,17.04-.02,34.07-.02,8.51,0,17.03,0,23.41.02,10.86,0,20.03-7.58,21.84-18.01l10.59-60.85.03-.2.02-.2c.64-5.97-1.33-11.99-5.39-16.52-4.19-4.66-10.22-7.34-16.57-7.36-15.54-.03-494.07-.09-714.33-.09-31.27-.02-63.1-.04-86.53-.05H13.71Z"/>
  <g>
    <path class="cls-1" d="M566.82,725.89c.05-20.29,12.87-36.44,29.67-36.4,13.56.04,22.71,11.61,22.67,27.35-.05,19.86-13.92,36.09-29.49,36.05-14.61-.04-22.89-11.43-22.85-27.01ZM581.61,724.36c-.02,9.1,4.95,13.84,9.15,13.85,4.72.01,13.75-6.79,13.79-20.43.02-8.92-4.78-13.48-9.15-13.5-5.6-.02-13.75,7.05-13.79,20.08Z"/>
    <path class="cls-1" d="M631.93,690.44l15.96.04c3.01,0,5.98.77,8.54,2.35,8.33,5.11,12.27,14.31,12.24,23.43-.02,7.58-3.24,17.99-10.57,26.05-5.72,6.28-13.95,9.67-22.44,9.64l-13.77-.04c-1.43,0-2.52-1.3-2.27-2.71l10.03-56.85c.19-1.11,1.16-1.91,2.28-1.91ZM639.17,736.83h.78c1.45,0,2.87-.44,4.06-1.27,4.89-3.4,10.1-9.27,10.13-19.34.01-4.98-2.07-7.65-4.58-9.71-1.08-.88-2.44-1.33-3.83-1.34h-1.69c-1.12,0-2.08.79-2.28,1.9l-4.86,27.04c-.25,1.41.83,2.71,2.27,2.72Z"/>
    <path class="cls-1" d="M713.59,731.5c-2.37,12.99-10.36,20.33-23.36,20.97-11.89.58-21.29-10.04-19.13-21.74.02-.1.04-.2.06-.3l6.85-38.31c.2-1.1,1.16-1.9,2.28-1.9l10.45.03c1.43,0,2.52,1.3,2.27,2.71l-6.98,39.09c-.09.52-.09,1.14-.09,1.57,0,2.54,1.65,3.68,4.8,3.69,3.5,0,6.91-1.38,7.71-5.23l7.2-39.89c.2-1.1,1.16-1.9,2.28-1.9l10.36.03c1.44,0,2.52,1.31,2.27,2.72l-6.97,38.47Z"/>
    <path class="cls-1" d="M733.74,690.35l10.36.03c1.43,0,2.52,1.3,2.27,2.71l-7.22,40.76c-.25,1.41.83,2.71,2.27,2.71l15.19.04c1.42,0,2.5,1.28,2.27,2.68l-1.74,10.69c-.18,1.12-1.15,1.94-2.28,1.94l-31.15-.08c-1.43,0-2.52-1.3-2.27-2.71l10.03-56.85c.19-1.11,1.16-1.91,2.28-1.91Z"/>
    <path class="cls-1" d="M810.8,693.23l-1.75,10.86c-.18,1.12-1.15,1.94-2.29,1.94l-17.31-.05c-1.1,0-2.04.77-2.27,1.84l-.82,3.95c-.3,1.43.79,2.77,2.25,2.78l9.48.03c1.43,0,2.51,1.29,2.27,2.7l-1.42,8.15c-.19,1.11-1.16,1.92-2.28,1.91l-10.99-.03c-1.12,0-2.08.8-2.28,1.9l-.85,4.74c-.25,1.41.83,2.71,2.27,2.72l16.38.04c1.43,0,2.51,1.29,2.27,2.7l-1.86,10.69c-.19,1.11-1.16,1.92-2.28,1.91l-32.31-.09c-1.43,0-2.52-1.3-2.27-2.71l10.03-56.85c.19-1.11,1.16-1.91,2.28-1.91l31.48.09c1.42,0,2.5,1.27,2.27,2.68Z"/>
    <path class="cls-1" d="M812.97,736.75l16.93.05c1.31,0,2.37-1.05,2.37-2.36h0c.02-7.61-17.29-11.24-17.26-23.93.01-4.5,1.47-8.59,4.09-12.22,3.54-4.9,9.31-7.69,15.36-7.68l13.75.04c1.42,0,2.5,1.28,2.27,2.69l-1.81,10.86c-.19,1.12-1.15,1.93-2.28,1.93l-13.29-.04c-1.47,0-2.68,1.2-2.69,2.67v.03c-.02,6.12,17.29,11.24,17.25,24.72,0,.38-.01.75-.03,1.12-.57,9.91-9.13,17.49-19.06,17.46l-17.42-.05c-1.43,0-2.51-1.29-2.27-2.69l1.8-10.69c.19-1.11,1.15-1.93,2.28-1.92Z"/>
    <path class="cls-1" d="M518.5,720.9l-5.39,29.1c-.2,1.1-1.16,1.89-2.28,1.89l-9.94-.03c-1.43,0-2.52-1.3-2.27-2.71,3.26-18.82,6.51-37.64,9.77-56.46.23-1.33,1.38-2.29,2.73-2.29l11.1.03c.98,0,1.85.62,2.17,1.54l7.58,21.67c.3.87,1.46,1.02,1.98.26l15.19-22.38c.43-.63,1.15-1.01,1.92-1.01l11.08.03c1.43,0,2.52,1.3,2.27,2.71l-10.03,56.85c-.19,1.11-1.16,1.91-2.28,1.91l-10.18-.03c-1.44,0-2.52-1.3-2.27-2.72l4.91-27.24c.21-1.18-1.33-1.82-2.02-.84l-11.68,16.73c-1.07,1.53-3.41,1.23-4.06-.52l-6.18-16.67c-.39-1.06-1.94-.93-2.15.18Z"/>
  </g>
  <g>
    <path class="cls-1" d="M185.77,691.17l-2.35,14.09c-.06.37-.39.65-.77.65l-9.74-.03c-4.53-.01-8.9,1.85-11.94,5.21-2.76,3.05-4.83,7.04-4.84,12.16,0,2.4.2,4.37.56,5.99.98,4.47,4.96,7.64,9.54,7.65,3.47,0,8.12.02,10.07.03.48,0,.84.44.76.91l-2.5,13.91c-.07.37-.39.64-.76.64l-8.31-.02c-10.4-.03-19.75-6.64-22.93-16.53-1.09-3.39-1.64-7.13-1.63-11.11.03-9.78,5.2-23.32,18.17-31.13,3.73-2.24,8.03-3.37,12.38-3.35l13.53.04c.48,0,.84.43.76.9Z"/>
    <path class="cls-1" d="M134.78,690.86c-.02-.41-.36-.73-.77-.73l-18.73-.05c-.31,0-.59.19-.72.47l-18.57,44.08,4.36,17.55h4.41c.33.01.62-.2.73-.51l3.82-10.97c.11-.31.4-.52.73-.52l11.32.03c.43,0,.77.35.77.78l-.03,10.47c0,.43.34.78.77.78l14.67.04c.45,0,.8-.37.78-.82l-3.54-60.61ZM122.17,728.84c0,.43-.35.77-.78.77l-7.16-.02c-.53,0-.9-.53-.73-1.03l7.21-20.71c.11-.31.4-.52.73-.52.43,0,.77.35.77.78l-.06,20.73Z"/>
    <path class="cls-1" d="M228.21,691.28l-2.27,14.09c-.06.38-.39.65-.77.65l-20.1-.05c-.37,0-.69.26-.76.62l-1.47,7.11c-.1.48.27.93.76.93l13.34.04c.48,0,.84.43.76.91l-1.98,11.35c-.06.37-.39.64-.76.64l-13.73-.04c-.38,0-.7.27-.76.64l-1.43,7.91c-.09.47.28.91.76.91l20.26.05c.48,0,.84.43.76.91l-2.42,13.91c-.06.37-.39.64-.76.64l-35.82-.1c-.48,0-.84-.44-.76-.91l10.68-60.57c.07-.37.39-.64.76-.64l34.95.09c.48,0,.84.43.76.9Z"/>
    <path class="cls-1" d="M90.63,727.95c-.09-.34,0-.7.24-.97,5.04-5.63,7.53-12.22,7.53-19.81,0-4.02-.76-7.62-2.26-10.82-.01-.02-.02-.05-.03-.07-1.87-3.95-5.94-6.39-10.31-6.39h-38.04c-.59,0-.89.71-.48,1.13l4.83,4.96,7.08,7.27c.24.24.34.59.29.92l-8.33,48.04h14.36c.51,0,.95-.37,1.04-.88l.47-2.63,2.86-16.09c.09-.51.53-.88,1.04-.88h4.53c.5,0,.93.35,1.04.84l4.06,18.8c.11.49.54.84,1.04.84h13.91c.69,0,1.2-.65,1.03-1.32l-5.88-22.93ZM77.73,718.9c-1.1.7-2.46,1.1-3.87,1.18l-1.56.09c-.37.02-.66-.21-.61-.49l3.07-17.85c.04-.22.27-.39.56-.4l1.89-.11c1.42-.08,2.82.22,3.92.88,1.76,1.05,3.17,2.5,3.33,5.15.33,5.69-3.21,9.31-6.72,11.55Z"/>
  </g>
  <g>
    <path class="cls-1" d="M341.08,691.13l-2.26,14.05c-.06.37-.38.65-.76.65l-20.04-.05c-.37,0-.68.26-.76.62l-1.47,7.09c-.1.48.27.93.75.93l13.3.04c.48,0,.84.43.76.9l-1.97,11.32c-.06.37-.39.64-.76.64l-13.68-.04c-.37,0-.7.27-.76.63l-1.42,7.88c-.09.47.28.91.76.91l20.19.05c.48,0,.84.43.76.9l-2.42,13.87c-.06.37-.39.64-.76.64l-35.71-.1c-.48,0-.84-.43-.76-.91l10.65-60.38c.07-.37.39-.64.76-.64l34.84.09c.47,0,.84.43.76.89Z"/>
    <path class="cls-1" d="M380.75,691.07l3.53,60.41c.03.44-.33.82-.77.82l-14.62-.04c-.43,0-.77-.35-.77-.77l.03-10.44c0-.43-.34-.77-.77-.77l-11.28-.03c-.33,0-.62.21-.73.52l-3.81,10.93c-.11.31-.4.52-.73.52l-14.95-.04c-.55,0-.92-.56-.71-1.07l25.42-60.34c.12-.29.4-.47.71-.47l18.67.05c.41,0,.74.32.77.73ZM367.46,707.49h0c-.33,0-.62.21-.73.52l-7.19,20.64c-.17.5.2,1.02.73,1.03l7.13.02c.43,0,.77-.34.77-.77l.06-20.66c0-.43-.34-.77-.77-.77Z"/>
    <path class="cls-1" d="M400.21,690.4l15.08.04c7.4.02,14.43,3.58,18.53,9.73,3.18,4.77,4.71,10.52,4.7,16.24-.02,8.31-3.85,19.98-12.68,28.31-5.33,5.03-12.48,7.66-19.8,7.64l-16.48-.04c-.48,0-.84-.43-.76-.91l10.65-60.38c.07-.37.39-.64.76-.64ZM406.96,737.12h2.03c1.9.01,3.76-.57,5.29-1.69,4.75-3.48,9.59-9.32,9.62-19.06.01-4.63-1.76-7.27-4.03-9.28-1.37-1.21-3.15-1.84-4.97-1.85h-2.48c-.37,0-.7.26-.76.63l-5.45,30.34c-.08.47.28.91.76.91Z"/>
    <path class="cls-1" d="M460.78,752.51l-14.21-.04c-.48,0-.84-.43-.76-.9l4.02-23.38c.02-.14,0-.28-.04-.41-4.16-10.59-6.82-21.61-8.29-36.42-.05-.46.31-.85.77-.85l14.37.04c.41,0,.74.32.77.73.39,6.58,1.05,13.07,2.28,18.59.15.68,1.06.82,1.42.23,3.62-6.13,6.62-12.53,9.11-19.01.11-.3.4-.49.72-.49l15.61.04c.57,0,.94.6.69,1.11-7.3,15.16-14.19,27.33-21.66,36.93-.08.1-.13.21-.15.34l-3.89,22.86c-.06.37-.39.64-.76.64Z"/>
    <path class="cls-1" d="M283.86,727.97c-.09-.34,0-.7.24-.97,5.03-5.62,7.51-12.19,7.51-19.77,0-4.01-.76-7.61-2.26-10.8-.49-1.05-1.89-2.81-3.69-3.98-2.17-1.4-8.05-2.55-10.63-2.55-8.05-.02-9.94.03-18,0-1.26,0-2.34.91-2.55,2.15-3.35,20.04-6.69,40.08-10.04,60.12h14.33c.51,0,.95-.37,1.04-.87l.47-2.63,2.85-16.07c.09-.51.53-.87,1.04-.87h4.52c.5,0,.93.35,1.03.84l4.05,18.77c.11.49.54.84,1.03.84h13.88c.69,0,1.2-.65,1.03-1.32l-5.87-22.89ZM270.99,718.93c-1.1.7-2.46,1.09-3.86,1.18l-1.56.09c-.36.02-.66-.21-.61-.49l3.06-17.82c.04-.22.27-.39.56-.4l1.89-.11c1.42-.08,2.81.22,3.91.88,1.76,1.05,3.17,2.5,3.32,5.14.33,5.68-3.2,9.3-6.71,11.53Z"/>
  </g>
</svg>