<?xml version="1.0" encoding="UTF-8"?>
<svg id="Layer_14" data-name="Layer 14" xmlns="http://www.w3.org/2000/svg" viewBox="0 0 873 858.3">
  <defs>
    <style>
      .cls-1 {
        fill: #fff;
        stroke-width: 0px;
      }
    </style>
  </defs>
  <path class="cls-1" d="M81.13,33.75c-1.1-.66-2.5-.96-3.92-.88l-1.89.11c-.28.02-.52.19-.56.4l-3.07,17.85c-.05.28.24.51.61.49l1.56-.09c1.4-.08,2.77-.48,3.87-1.18,3.52-2.24,7.05-5.86,6.72-11.55-.15-2.65-1.57-4.1-3.33-5.15Z"/>
  <path class="cls-1" d="M649.57,38.07c-1.08-.88-2.44-1.33-3.83-1.34h-1.69c-1.12,0-2.08.79-2.28,1.9l-4.86,27.04c-.25,1.41.83,2.71,2.27,2.72h.78c1.45,0,2.87-.44,4.06-1.27,4.89-3.4,10.1-9.27,10.13-19.34.01-4.98-2.07-7.65-4.58-9.71Z"/>
  <path class="cls-1" d="M595.4,35.83c-5.6-.02-13.75,7.05-13.79,20.08-.02,9.1,4.95,13.84,9.15,13.85,4.72.01,13.75-6.79,13.79-20.43.02-8.92-4.78-13.48-9.15-13.5Z"/>
  <path class="cls-1" d="M419.87,38.64c-1.37-1.21-3.15-1.84-4.97-1.85h-2.48c-.37,0-.7.26-.76.63l-5.45,30.34c-.08.47.28.91.76.91h2.03c1.9.01,3.76-.57,5.29-1.69,4.75-3.48,9.59-9.32,9.62-19.06.01-4.63-1.76-7.27-4.03-9.28Z"/>
  <path class="cls-1" d="M274.37,33.81c-1.1-.66-2.5-.96-3.91-.88l-1.89.11c-.28.02-.52.19-.56.4l-3.06,17.82c-.05.28.24.51.61.49l1.56-.09c1.4-.08,2.77-.48,3.86-1.18,3.51-2.23,7.04-5.85,6.71-11.53-.15-2.64-1.56-4.09-3.32-5.14Z"/>
  <path class="cls-1" d="M367.46,39.05c-.33,0-.62.21-.73.52l-7.19,20.64c-.17.5.2,1.02.73,1.03l7.13.02c.43,0,.77-.34.77-.77l.06-20.66c0-.43-.34-.77-.77-.77Z"/>
  <path class="cls-1" d="M121.46,38.89c-.33,0-.62.21-.73.52l-7.21,20.71c-.17.5.2,1.03.73,1.03l7.16.02c.43,0,.78-.34.78-.77l.06-20.73c0-.43-.34-.78-.77-.78Z"/>
  <path class="cls-1" d="M850.91,8.59c-15.95-.03-498.88-.09-714.32-.09-31.27-.02-63.1-.04-86.54-.05-21.82,0-36.35-.01-36.35-.01-1.8,0-2.72,2.18-1.46,3.47l31.04,32.07c.13.14.24.29.32.46.22.4.3.87.22,1.33,0,0-3.07,17.17-7,39.12.01.15.02.3.03.45,0,0,0,0,0,.01.79,7.75,7.53,14.07,16.01,14.08,23.21.04,730.04.3,730.04.3,0,0,38.33-.03,57.49,0,7.88.01,14.61-5.5,15.92-13.04,3.53-20.28,7.06-40.57,10.59-60.85.97-9.13-6.4-17.22-16-17.24ZM95.49,83.76h-13.91c-.5,0-.93-.35-1.04-.84l-4.06-18.8c-.11-.49-.54-.84-1.04-.84h-4.53c-.51,0-.95.37-1.04.88l-2.86,16.09-.47,2.63c-.09.51-.53.88-1.04.88h-14.36l8.33-48.04c.06-.33-.05-.68-.29-.92l-7.08-7.27-4.83-4.96c-.41-.42-.11-1.13.48-1.13h38.04c4.37,0,8.44,2.44,10.31,6.39.01.02.02.05.03.07,1.5,3.2,2.26,6.81,2.26,10.82,0,7.59-2.48,14.18-7.53,19.81-.24.26-.33.62-.24.97l5.88,22.93c.17.67-.33,1.32-1.03,1.32ZM137.55,83.84l-14.67-.04c-.43,0-.77-.35-.77-.78l.03-10.47c0-.43-.34-.78-.77-.78l-11.32-.03c-.33,0-.62.21-.73.52l-3.82,10.97c-.11.31-.4.52-.73.52h-4.41s-4.36-17.56-4.36-17.56l18.57-44.08c.12-.29.4-.47.72-.47l18.73.05c.41,0,.75.32.77.73l3.54,60.61c.03.45-.33.82-.78.82ZM174.56,83.3c-.07.37-.39.64-.76.64l-8.31-.02c-10.4-.03-19.75-6.64-22.93-16.53-1.09-3.39-1.64-7.13-1.63-11.11.03-9.78,5.2-23.32,18.17-31.13,3.73-2.24,8.03-3.37,12.38-3.35l13.53.04c.48,0,.84.43.76.9l-2.35,14.09c-.06.37-.39.65-.77.65l-9.74-.03c-4.53-.01-8.9,1.85-11.94,5.21-2.76,3.05-4.83,7.04-4.84,12.16,0,2.4.2,4.37.56,5.99.98,4.47,4.96,7.64,9.54,7.65,3.47,0,8.12.02,10.07.03.48,0,.84.44.76.91l-2.5,13.91ZM225.94,36.93c-.06.38-.39.65-.77.65l-20.1-.05c-.37,0-.69.26-.76.62l-1.47,7.11c-.1.48.27.93.76.93l13.34.04c.48,0,.84.43.76.91l-1.98,11.35c-.06.37-.39.64-.76.64l-13.73-.04c-.38,0-.7.27-.76.64l-1.43,7.91c-.09.47.28.91.76.91l20.26.05c.48,0,.84.43.76.91l-2.42,13.91c-.06.37-.39.64-.76.64l-35.82-.1c-.48,0-.84-.44-.76-.91l10.68-60.57c.07-.37.39-.64.76-.64l34.95.09c.48,0,.84.43.76.9l-2.27,14.09ZM283.86,59.52l5.87,22.89c.17.67-.33,1.32-1.03,1.32h-13.88c-.5,0-.93-.35-1.03-.84l-4.05-18.77c-.11-.49-.54-.84-1.03-.84h-4.52c-.51,0-.95.37-1.04.87l-2.85,16.07-.47,2.63c-.09.51-.53.87-1.04.87h-14.33c3.35-20.04,6.69-40.08,10.04-60.12.21-1.25,1.29-2.16,2.55-2.15,8.05.02,9.94-.03,18,0,2.58,0,8.46,1.15,10.63,2.55,1.81,1.17,3.2,2.93,3.69,3.98,1.5,3.19,2.26,6.79,2.26,10.8,0,7.58-2.48,14.16-7.51,19.77-.24.26-.33.62-.24.97ZM331.3,83.07c-.06.37-.39.64-.76.64l-35.71-.1c-.48,0-.84-.43-.76-.91l10.65-60.38c.07-.37.39-.64.76-.64l34.84.09c.47,0,.84.43.76.89l-2.26,14.05c-.06.37-.38.65-.76.65l-20.04-.05c-.37,0-.68.26-.76.62l-1.47,7.09c-.1.48.27.93.75.93l13.3.04c.48,0,.84.43.76.9l-1.97,11.32c-.06.37-.39.64-.76.64l-13.68-.04c-.37,0-.7.27-.76.63l-1.42,7.88c-.09.47.28.91.76.91l20.19.05c.48,0,.84.43.76.9l-2.42,13.87ZM383.5,83.85l-14.62-.04c-.43,0-.77-.35-.77-.77l.03-10.44c0-.43-.34-.77-.77-.77l-11.28-.03c-.33,0-.62.21-.73.52l-3.81,10.93c-.11.31-.4.52-.73.52l-14.95-.04c-.55,0-.92-.56-.71-1.07l25.42-60.34c.12-.29.4-.47.71-.47l18.67.05c.41,0,.74.32.77.73l3.53,60.41c.03.44-.33.82-.77.82ZM425.85,76.27c-5.33,5.03-12.48,7.66-19.8,7.64l-16.48-.04c-.48,0-.84-.43-.76-.91l10.65-60.38c.07-.37.39-.64.76-.64l15.08.04c7.4.02,14.43,3.58,18.53,9.73,3.18,4.77,4.71,10.52,4.7,16.24-.02,8.3-3.85,19.98-12.68,28.31ZM487.24,23.29c-7.3,15.16-14.19,27.33-21.66,36.93-.08.1-.13.21-.15.34l-3.89,22.86c-.06.37-.39.64-.76.64l-14.21-.04c-.48,0-.84-.43-.76-.9l4.02-23.38c.02-.14,0-.28-.04-.41-4.16-10.59-6.82-21.61-8.29-36.42-.05-.45.31-.85.77-.85l14.37.04c.41,0,.74.32.77.73.39,6.58,1.05,13.07,2.28,18.59.15.68,1.06.82,1.42.23,3.62-6.13,6.62-12.53,9.11-19.01.11-.3.4-.49.72-.49l15.61.04c.57,0,.94.6.69,1.11ZM564.41,24.79l-10.03,56.85c-.19,1.11-1.16,1.91-2.28,1.91l-10.18-.03c-1.44,0-2.52-1.3-2.27-2.72l4.91-27.24c.21-1.18-1.33-1.82-2.02-.84l-11.68,16.73c-1.07,1.53-3.41,1.23-4.06-.52l-6.18-16.67c-.39-1.06-1.94-.93-2.15.18l-5.39,29.1c-.2,1.1-1.16,1.89-2.28,1.89l-9.94-.03c-1.43,0-2.52-1.3-2.27-2.71,3.26-18.82,6.51-37.64,9.77-56.46.23-1.33,1.38-2.29,2.73-2.29l11.1.03c.98,0,1.85.62,2.17,1.54l7.58,21.67c.3.87,1.46,1.02,1.98.26l15.19-22.38c.43-.63,1.15-1.01,1.92-1.01l11.08.03c1.43,0,2.52,1.3,2.27,2.71ZM589.67,84.45c-14.61-.04-22.89-11.43-22.85-27.01.05-20.29,12.87-36.44,29.67-36.4,13.56.04,22.71,11.61,22.67,27.35-.05,19.86-13.92,36.09-29.49,36.05ZM658.1,73.86c-5.72,6.28-13.95,9.67-22.44,9.64l-13.77-.04c-1.43,0-2.52-1.3-2.27-2.71l10.03-56.85c.19-1.11,1.16-1.91,2.28-1.91l15.96.04c3.01,0,5.98.77,8.54,2.35,8.33,5.11,12.27,14.31,12.24,23.43-.02,7.58-3.24,17.99-10.57,26.05ZM720.55,24.59l-6.97,38.47c-2.37,12.99-10.36,20.33-23.36,20.97-11.89.58-21.29-10.04-19.13-21.74.02-.1.04-.2.06-.3l6.85-38.31c.2-1.1,1.16-1.9,2.28-1.9l10.45.03c1.43,0,2.52,1.3,2.27,2.71l-6.98,39.09c-.09.52-.09,1.14-.09,1.57,0,2.54,1.65,3.68,4.8,3.69,3.5,0,6.91-1.38,7.71-5.23l7.2-39.89c.2-1.1,1.16-1.9,2.28-1.9l10.36.03c1.44,0,2.52,1.31,2.26,2.72ZM758.88,70.84l-1.74,10.69c-.18,1.12-1.15,1.94-2.28,1.94l-31.15-.08c-1.43,0-2.52-1.3-2.27-2.71l10.03-56.85c.19-1.11,1.16-1.91,2.28-1.91l10.36.03c1.43,0,2.52,1.3,2.27,2.71l-7.22,40.76c-.25,1.41.83,2.71,2.27,2.71l15.19.04c1.42,0,2.5,1.28,2.27,2.68ZM806.76,37.59l-17.31-.05c-1.1,0-2.04.77-2.27,1.84l-.82,3.95c-.3,1.43.79,2.77,2.25,2.78l9.48.03c1.43,0,2.51,1.29,2.27,2.7l-1.42,8.15c-.19,1.11-1.16,1.92-2.28,1.91l-10.99-.03c-1.12,0-2.08.8-2.28,1.9l-.85,4.74c-.25,1.41.83,2.71,2.27,2.72l16.38.04c1.43,0,2.51,1.29,2.27,2.7l-1.86,10.69c-.19,1.11-1.16,1.92-2.28,1.91l-32.31-.09c-1.43,0-2.52-1.3-2.27-2.71l10.03-56.85c.19-1.11,1.16-1.91,2.28-1.91l31.48.09c1.42,0,2.5,1.27,2.27,2.68l-1.75,10.86c-.18,1.12-1.15,1.94-2.29,1.94ZM850.49,24.9l-1.81,10.86c-.19,1.12-1.15,1.93-2.28,1.93l-13.29-.04c-1.47,0-2.68,1.2-2.69,2.67v.03c-.02,6.12,17.29,11.24,17.25,24.72,0,.38-.01.75-.03,1.12-.57,9.91-9.13,17.49-19.06,17.46l-17.42-.05c-1.43,0-2.51-1.29-2.27-2.69l1.8-10.69c.19-1.11,1.15-1.93,2.28-1.92l16.93.05c1.31,0,2.37-1.05,2.37-2.36.02-7.61-17.29-11.24-17.26-23.93.01-4.5,1.47-8.59,4.09-12.22,3.54-4.9,9.31-7.69,15.36-7.68l13.75.04c1.42,0,2.5,1.28,2.27,2.69Z"/>
</svg>