<?xml version="1.0" encoding="utf-8"?>
<!-- Generator: Adobe Illustrator 16.0.0, SVG Export Plug-In . SVG Version: 6.00 Build 0)  -->
<!DOCTYPE svg PUBLIC "-//W3C//DTD SVG 1.1//EN" "http://www.w3.org/Graphics/SVG/1.1/DTD/svg11.dtd">
<svg version="1.1" xmlns="http://www.w3.org/2000/svg" xmlns:xlink="http://www.w3.org/1999/xlink" x="0px" y="0px" viewBox="0 0 500 163" enable-background="new 0 0 500 163" xml:space="preserve">
<g id="Layer_10">
	<g>
		<g>
			<path fill="#FFC82C" d="M500.019,37.991c0,0-2.112,73.18-12.11,88.586c-9.998,15.411-50.441,35.77-50.441,35.77
				s-40.438-20.358-50.436-35.77c-9.995-15.407-12.108-88.586-12.108-88.586l62.543-12.843L500.019,37.991z"/>
			<g>
				<path fill-rule="evenodd" clip-rule="evenodd" d="M482.473,58.152h-21.589l3.172-1.551c24.748,0.723,28.374-4.659,28.374-4.659
					c-15.979-1.015-24.635-2.997-24.635-2.997c-26.156-6.524-34.848-1.668-38.297-0.398c-3.449,1.269-7.123,13.337-7.123,13.337
					l-11.745,12.792l-5.242,2.224l-4.121,0.898l1.371-2.713c-7.291,0.176-12.816,6.414-12.816,6.414
					c-4.52,1.656-4.146,5.62-4.146,5.62c0.81-1.133,5.792-1.708,5.792-1.708l2.423,0.997l5.01,1.758l10.293,3.025l3.207,7.611
					l-4.725,2.363c-2.43-0.141-5.247,0.457-5.247,0.457l-3.244-0.671l-3.824,0.296l-0.317,0.703l-0.884-0.07
					c-3.136,0.237-2.429,3.171-2.429,3.171c1.602-3.023,4.019-1.313,4.019-1.313c-3.728,1.198-1.73,3.887-1.73,3.887
					c0.147-3.048,3.395-2.574,3.395-2.574l1.161,0.688l6.25-0.874c0,1.338-0.705,3.277-0.705,3.277l0.813,0.315
					c-0.493,1.34-1.398,2.442-1.398,2.442c2.771-0.679,3.439-2.828,3.439-2.828s1.797-3.89,2.328-4.269
					c0.53-0.377,1.746-1.455,1.746-1.455l5.833-1.25l4.951,0.282l0.338-3.164l2.214-0.127l-2.838-9.298
					c1.045,0.726,5.057,3.41,8.741,2.09c3.681-1.317,9.851-4.449,14.711-4.387c6.585,0.09,7.998-1.294,7.998-1.294
					s0.027,2.184,0.782,4.439c0.752,2.256,2.302,3.417,5.356,2.472c3.059-0.947,4.653-2.249,6.628-1.59
					c1.974,0.656,2.726,3.006,2.726,3.006l4.601,8.833l1.582,1.691l1.716-0.396l1.569,0.396l2.091-2.233l-1.416,0.17l1.577-4.525
					c-0.841,0.565-2.578,0.996-2.578,0.996l-4.387-9.542l-0.26-1.837l-8.447-1.446l-0.494-4.09
					c5.991,3.666,17.129,4.752,17.129,4.752l-0.446-1.01l7.174-1.761l1.588-3.101c-6.273,1.907-15.916,0.758-15.916,0.758
					s-2.901-0.696-10.396-4.705c-7.499-4.009-20.592-1.003-20.592-1.003l-6.953,0.798c-0.098-0.639,2.628-1.333,2.628-1.333
					l6.417-0.639c0,0,7.423-1.293,12.508-5.24l-11.407,0.069l2.397-1.299h11.985c0,0,7.423,0,10.194-3.634h-17.177l2.557-1.427
					h15.186C470.917,62.768,479.051,62.768,482.473,58.152z"/>
				<path fill-rule="evenodd" clip-rule="evenodd" fill="#FFC82C" d="M391.952,81.957c0,0,1.663,1.223,2.795,0.376
					c1.125-0.846,1.405-2.442,1.405-2.442S394.29,80.247,391.952,81.957z"/>
				<path fill-rule="evenodd" clip-rule="evenodd" d="M404.802,75.66l1.672-5.718c0,0-3.208-13.409,2.447-18.129
					c0,0,4.437-2.498,15.152,0.516c0,0-2.499,4.889-2.966,8.412L409.5,73.312L404.802,75.66z"/>
				<path fill-rule="evenodd" clip-rule="evenodd" d="M404.802,91.263l3.616,0.938l2.349,5.966l-3.802,1.882
					c0,0-3.196,0.142-4.466,0.42l-3.101-0.515l-1.753,0.312l-2.321-0.976c0,0-2.733-0.737-3.607,1.327c0,0-0.873-3.06,4.251-2.682
					l0.75-0.752l4.053,1.254l3.936-0.786L404.802,91.263z"/>
				<path fill-rule="evenodd" clip-rule="evenodd" d="M446.025,87.719c0,0,3.732,0.089,5.706-0.842c0,0-0.02,4.713,3.525,6.216
					c0,0,1.734,1.192,5.661-0.779l1.271-0.574c0,0,2.8,6.654,3.376,6.449c0.573-0.202,0.938-0.511,0.938-0.511l0.42,2.049h0.646
					l-3.026,3.525c0,0-2.271-0.168-2.949-1.612c-0.676-1.441-3.448-5.533-3.448-5.533s-0.537-0.779-3.325-0.883
					c-2.786-0.102-3.592-0.729-3.592-0.729L446.025,87.719z"/>
			</g>
			<g>
				<path fill-rule="evenodd" clip-rule="evenodd" d="M432.313,114.717c0.209-0.616,0.628-0.688,1.14-0.683
					c1.997,0.018,3.993-0.004,5.989,0.018c0.291,0.003,0.768-0.223,0.82,0.299c0.034,0.345-0.307,0.426-0.613,0.512
					c-1.247,0.354-1.544,1.37-1.561,2.48c-0.032,2.464-0.008,4.928-0.008,7.639c0.482-0.792,0.845-1.417,1.231-2.021
					c2.231-3.457,5.578-4.48,9.455-4.275c1.536,0.078,3.044,0.784,4.595-0.033c0.438-0.228,0.686,0.152,0.672,0.624
					c-0.052,1.744-0.113,3.485-0.136,5.226c-0.002,0.375-0.166,0.546-0.476,0.629c-0.502,0.14-0.4-0.352-0.46-0.546
					c-1.107-3.493-2.477-3.716-6.304-3.563c-3.372,0.134-4.833,2.487-5.696,5.29c-0.977,3.189-0.968,6.428,0.17,9.61
					c1.34,3.774,5.8,4.212,8.183,3.411c1.181-0.398,1.853-1.284,1.822-2.611c-0.02-0.938-0.085-1.88,0.016-2.802
					c0.154-1.36-0.4-2.073-1.708-2.329c-0.302-0.061-0.83,0-0.692-0.648c0.109-0.545,0.504-0.359,0.797-0.36
					c2.039-0.016,4.079-0.02,6.12,0.001c0.281,0.005,0.729-0.229,0.787,0.347c0.038,0.422-0.292,0.448-0.567,0.538
					c-1.053,0.348-1.369,1.091-1.313,2.161c0.069,1.487-0.021,2.976,0.032,4.464c0.021,0.689-0.146,1.039-0.853,1.291
					c-1.789,0.635-3.557,1.347-5.12,2.463c-0.82,0.58-1.757,0.534-2.69,0.529c-4.739-0.034-8.311-3.193-8.898-7.883
					c-0.032-0.241-0.053-0.479-0.101-0.925c-0.61,0.644-1.054,1.19-1.575,1.644c-2.957,2.578-8.93,2.682-11.981,0.196
					c-1.417-1.156-2.183-2.675-2.188-4.529c-0.011-3.829-0.004-7.653-0.004-11.476c0-0.385,0.004-0.767-0.002-1.149
					c-0.042-2.514-0.34-2.897-2.707-3.531c0.141-0.436,0.448-0.572,0.881-0.541c2.205,0.161,4.416,0.122,6.622-0.006
					c0.25-0.014,0.553-0.087,0.602,0.266c0.034,0.236-0.175,0.376-0.394,0.427c-1.329,0.306-1.741,1.335-1.765,2.481
					c-0.092,4.374-0.375,8.755,0.141,13.109c0.31,2.614,2.585,4.341,5.412,4.441c3.03,0.107,5.315-1.401,5.905-3.946
					c0.11-0.445,0.123-0.922,0.124-1.385c0.008-3.527,0.006-7.059,0.006-10.584C436.021,115.938,435.358,115.163,432.313,114.717z"
					/>
			</g>
			<polygon fill="#C22033" points="500.019,13.083 437.468,0.239 374.924,13.083 374.924,31.487 437.472,18.644 500.019,31.487 			
				"/>
		</g>
		<g>
			<g>
				<g>
					<path fill="#FFC82C" d="M56.877,36.625v-22.31c0-7.834,6.494-14.259,14.4-14.259h9.46c4.448,0,8.189,1.835,11.154,5.507
						l-4.236,4.235H86.81c-2.401-2.895-4.236-3.812-7.625-3.812h-7.059c-4.801,0-8.471,3.954-8.471,9.178v20.614
						c0,5.223,3.67,9.176,8.471,9.176h6.212c4.588,0,8.472-4.165,8.472-9.176v-7.343H75.937v-5.931h17.649v14.12
						c0,7.483-6.849,14.26-14.402,14.26h-7.907C63.372,50.885,56.877,44.461,56.877,36.625z"/>
					<path fill="#FFC82C" d="M104.601,0.48h19.484c8.119,0,13.695,5.224,13.695,12.847v4.449c0,6.212-3.741,10.87-9.531,12.354
						l10.521,18.144v2.188h-6.566l-11.507-19.838h-9.319v19.838h-6.777V0.48z M123.239,24.694c5.011,0,7.766-2.752,7.766-7.766
						v-2.753c0-5.014-2.755-7.765-7.766-7.765h-11.86v18.284H123.239z"/>
					<path fill="#FFC82C" d="M160.584,33.377L143.006,2.739V0.48h6.072l14.824,26.544h0.141L178.869,0.48h6.071v2.259
						l-17.579,30.638v17.085h-6.778V33.377z"/>
					<path fill="#FFC82C" d="M193.414,0.48h18.639c8.118,0,13.695,5.224,13.695,12.847v4.449c0,7.625-5.577,12.848-13.695,12.848
						h-11.861v19.838h-6.777V0.48z M211.204,24.694c5.012,0,7.766-2.752,7.766-7.766v-2.753c0-5.014-2.754-7.765-7.766-7.765
						h-11.013v18.284H211.204z"/>
					<path fill="#FFC82C" d="M271.496,0.48v49.982h-6.777V28.012h-22.873v22.451h-6.778V0.48h6.778v21.602h22.873V0.48H271.496z"/>
					<path fill="#FFC82C" d="M282.933,36.625v-22.31c0-7.482,6.85-14.259,14.402-14.259h8.473c7.551,0,14.399,6.777,14.399,14.259
						v22.31c0,7.483-6.848,14.26-14.399,14.26h-8.473C289.783,50.885,282.933,44.108,282.933,36.625z M304.96,44.955
						c4.589,0,8.471-4.165,8.471-9.176V15.165c0-5.013-3.882-9.178-8.471-9.178h-6.779c-4.588,0-8.47,4.166-8.47,9.178v20.614
						c0,5.011,3.882,9.176,8.47,9.176H304.96z"/>
					<path fill="#FFC82C" d="M330.376,0.48h7.484l11.153,19.202c3.743,6.425,7.414,12.779,11.155,20.05h0.424
						c-0.212-7.271-0.283-13.625-0.283-20.05V0.48h6.776v49.982h-7.482L348.449,31.26c-3.742-6.424-7.414-12.78-11.155-20.051
						h-0.423c0.211,7.271,0.284,13.626,0.284,20.051v19.202h-6.779V0.48z"/>
				</g>
				<g>
					<path fill="#C22033" d="M38.45,57.379h29.981c12.999,0,18.679,7.592,14.432,19.264l-2.072,5.692
						c-2.833,7.783-9.028,13.855-16.611,16.703l4.306,22.583l-1.073,2.943H50.525l-3.086-23.059h-8.54l-8.393,23.059h-16.51
						L38.45,57.379z M54.411,88.601c4.934,0,8.558-2.658,10.354-7.593l1.141-3.132c1.796-4.934,0.104-7.59-4.828-7.59H50.261
						l-6.666,18.314H54.411z"/>
					<path fill="#C22033" d="M69.759,122.286l44.496-64.907h21.918l-2.656,64.907l-0.829,2.277h-16.415l0.833-13.76H94.433
						l-9.087,13.76H68.93L69.759,122.286z M118.579,97.899c0.684-8.92,1.368-17.84,2.306-27.709h-0.569
						c-6.25,9.869-12.059,18.789-17.962,27.709H118.579z"/>
					<path fill="#C22033" d="M141.04,103.97l9.463-25.999c4.351-11.956,16.998-21.159,29.047-21.159h12.051
						c8.346,0,12.694,2.657,14.659,8.729l-12.943,9.488h-3.606c-0.497-3.32-1.971-4.743-5.767-4.743h-6.167
						c-4.742,0-9.281,3.606-11.18,8.825l-8.635,23.721c-1.901,5.222,0.048,8.731,4.791,8.731h6.641c3.702,0,6.271-1.33,9.188-4.649
						h3.606l6.034,9.49c-6.385,6.071-12.667,8.729-21.11,8.729h-12.429C142.633,125.133,136.722,115.832,141.04,103.97z"/>
					<path fill="#C22033" d="M217.484,57.379h16.509l-24.455,67.184h-16.506L217.484,57.379z"/>
					<path fill="#C22033" d="M247.465,57.379h22.581l2.087,22.68c0.715,7.686,1.392,15.467,1.111,25.621h0.759
						c3.411-10.154,6.15-17.936,8.948-25.621l8.254-22.68h16.508l-24.453,67.184h-22.58l-2.149-22.774
						c-0.652-7.591-1.331-15.373-1.048-25.526h-0.763c-3.408,10.154-6.146,17.935-8.909,25.526l-8.29,22.774h-16.509L247.465,57.379
						z"/>
					<path fill="#C22033" d="M300.239,103.97l9.462-25.999c4.25-11.672,17.76-21.159,30.095-21.159h12.238
						c8.16,0,12.931,2.277,14.817,7.779l-14.106,10.343h-2.562c-0.516-3.796-2.087-5.219-6.071-5.219h-6.926
						c-4.745,0-9.282,3.606-11.147,8.73l-9.117,25.051c-1.867,5.124,0.046,8.729,4.79,8.729h6.833c4.65,0,9.411-3.7,11.243-8.729
						l2.313-6.357h-11.004l3.938-10.817h26.944l-6.423,17.647c-4.145,11.39-17.948,21.164-30.092,21.164h-10.534
						C302.594,125.133,295.991,115.642,300.239,103.97z"/>
				</g>
			</g>
		</g>
		<g>
			<path fill="#C22033" d="M67.076,161.883l20.103-29.326H71.852c1.298,0.706,2.052,1.835,2.526,3.257l-5.54,4.061H66.13
				c-0.197-1.616-0.908-2.184-2.435-2.184h-2.487c-1.876,0-3.258,0.917-3.847,2.531l-0.412,1.137
				c-0.524,1.44-0.151,2.095,1.566,2.531l5.563,1.267c4.781,1.137,6.139,3.406,4.581,7.686l-0.684,1.878
				c-1.328,3.65-4.097,6.36-7.49,7.625h6.421L67.076,161.883z"/>
			<path fill="#C22033" d="M29.903,150.878l-4.175,11.469H45.31c-1.337-0.742-2.129-1.95-2.505-3.477l5.12-3.755h2.62
				c0.448,1.528,1.114,2.095,2.774,2.095h3.36c1.876,0,3.129-0.917,3.795-2.75l0.492-1.354c0.526-1.44,0.136-2.052-1.466-2.445
				l-5.591-1.31c-4.754-1.092-6.194-3.494-4.668-7.686l0.604-1.66c1.29-3.545,4.072-6.198,7.484-7.448h-7.183l-1.963,5.396H34.607
				l-2.543,6.986h11.263l-2.16,5.94H29.903z"/>
			<path fill="#C22033" d="M131.364,137.952H116.74l-2.288,6.29h12.791l-2.162,5.939H112.29l-2.479,6.809h14.624l-1.949,5.356
				h289.613c-13.122-7.924-28.729-18.806-35.388-29.073c-0.146-0.222-0.281-0.481-0.422-0.717H133.328L131.364,137.952z"/>
			<polygon fill="#C22033" points="28.977,132.557 10.844,132.557 0,162.347 18.134,162.347 			"/>
			<path fill="#C22033" d="M89.539,150.66c0.313-4.105,0.629-8.211,1.059-12.75h-0.26c-2.877,4.54-5.549,8.646-8.264,12.75H89.539z"
				/>
			<polygon fill="#C22033" points="111.11,132.557 97.613,132.557 96.412,161.883 96.242,162.347 100.269,162.347 			"/>
			<polygon fill="#C22033" points="88.86,156.6 78.426,156.6 74.632,162.347 88.513,162.347 			"/>
		</g>
	</g>
</g>
<g id="Layer_11">
</g>
</svg>
