<?xml version="1.0" encoding="utf-8"?>
<!-- Generator: Adobe Illustrator 16.0.0, SVG Export Plug-In . SVG Version: 6.00 Build 0)  -->
<!DOCTYPE svg PUBLIC "-//W3C//DTD SVG 1.1//EN" "http://www.w3.org/Graphics/SVG/1.1/DTD/svg11.dtd">
<svg version="1.1" xmlns="http://www.w3.org/2000/svg" xmlns:xlink="http://www.w3.org/1999/xlink" x="0px" y="0px" width="154px"
	 height="200px" viewBox="0 0 154 200" enable-background="new 0 0 154 200" xml:space="preserve">
<g id="Layer_10">
	<g>
		<g>
			<path fill="#FFFFFF" d="M77.064,35.028l72.871,14.962c-0.95,26.983-4.965,89.44-14.152,103.597
				c-10.295,15.873-49.789,37.045-58.719,41.696c-8.928-4.65-48.414-25.823-58.71-41.696C9.17,139.433,5.154,76.974,4.203,49.99
				L77.064,35.028 M77.064,30.944L0.097,46.75c0,0,2.6,90.056,14.901,109.014c12.303,18.967,62.066,44.019,62.066,44.019
				s49.773-25.051,62.075-44.019c12.303-18.958,14.902-109.014,14.902-109.014L77.064,30.944L77.064,30.944z"/>
		</g>
		<g>
			<path fill-rule="evenodd" clip-rule="evenodd" fill="#FFFFFF" d="M118.225,77.238H99.541l-3.146,1.757h21.137
				c-3.412,4.472-12.548,4.472-12.548,4.472H90.237l-2.95,1.602l14.038-0.086c-6.258,4.858-15.39,6.449-15.39,6.449l-7.899,0.786
				c0,0-3.354,0.854-3.238,1.64l8.558-0.981c0,0,16.114-3.701,25.34,1.235c9.226,4.934,12.795,5.789,12.795,5.789
				s11.867,1.414,19.588-0.934l-1.953,3.818l-8.833,2.169l0.552,1.242c0,0-13.704-1.338-21.077-5.849l0.606,5.032l10.395,1.779
				l0.32,2.263l5.398,11.743c0,0,2.135-0.53,3.172-1.226l-1.939,5.569l1.74-0.211l-2.574,2.75l-1.93-0.487l-2.112,0.487
				l-1.946-2.081l-5.665-10.872c0,0-0.925-2.892-3.354-3.701c-2.428-0.809-4.391,0.796-8.152,1.959
				c-3.76,1.162-5.67-0.265-6.596-3.041c-0.925-2.775-0.959-5.464-0.959-5.464s-1.741,1.705-9.844,1.594
				c-5.98-0.079-13.575,3.775-18.104,5.399c-4.532,1.623-9.47-1.681-10.759-2.572l3.497,11.44l-2.726,0.157l-0.417,3.894
				l-6.091-0.346l-7.176,1.537c0,0-1.501,1.327-2.152,1.792c-0.653,0.465-2.862,5.251-2.862,5.251s-0.826,2.646-4.233,3.482
				c0,0,1.109-1.356,1.717-3.006l-0.999-0.389c0,0,0.868-2.386,0.868-4.034l-7.69,1.077l-1.427-0.846c0,0-4-0.585-4.177,3.166
				c0,0-2.459-3.31,2.125-4.784c0,0-2.972-2.104-4.945,1.618c0,0-0.868-3.612,2.991-3.902l1.085,0.086l0.39-0.867l4.708-0.363
				l3.99,0.827c0,0,3.469-0.738,6.461-0.564l5.813-2.906l-3.947-9.369l-12.667-3.723l-6.165-2.163l-2.982-1.227
				c0,0-6.133,0.706-7.126,2.101c0,0-0.464-4.876,5.1-6.915c0,0,6.796-7.676,15.773-7.893l-1.69,3.34l5.071-1.107l6.45-2.736
				l14.456-15.741c0,0,4.521-14.854,8.766-16.414c4.247-1.562,14.94-7.54,47.127,0.489c0,0,10.654,2.44,30.315,3.688
				c0,0-4.46,6.625-34.917,5.735l-3.901,1.909h26.569C128.241,77.238,118.225,77.238,118.225,77.238z M21.053,100.854
				c0,0,2.049,1.506,3.437,0.464c1.388-1.041,1.734-3.007,1.734-3.007S23.927,98.749,21.053,100.854z"/>
			<path fill-rule="evenodd" clip-rule="evenodd" fill="#FFFFFF" d="M36.865,93.106l2.06-7.039c0,0-3.95-16.499,3.009-22.308
				c0,0,5.463-3.072,18.647,0.635c0,0-3.074,6.016-3.652,10.352l-14.282,15.47L36.865,93.106z"/>
			<path fill-rule="evenodd" clip-rule="evenodd" fill="#FFFFFF" d="M36.865,112.304l4.452,1.157l2.891,7.343l-4.683,2.314
				c0,0-3.932,0.174-5.494,0.52l-3.816-0.636l-2.157,0.383l-2.855-1.198c0,0-3.363-0.908-4.437,1.63c0,0-1.075-3.765,5.229-3.301
				l0.924-0.925l4.985,1.544l4.844-0.967L36.865,112.304z"/>
			<path fill-rule="evenodd" clip-rule="evenodd" fill="#FFFFFF" d="M87.598,107.946c0,0,4.591,0.108,7.021-1.037
				c0,0-0.026,5.8,4.335,7.65c0,0,2.136,1.465,6.97-0.958l1.561-0.707c0,0,3.447,8.188,4.155,7.938
				c0.71-0.25,1.156-0.629,1.156-0.629l0.52,2.522h0.791l-3.721,4.336c0,0-2.796-0.208-3.628-1.983
				c-0.833-1.775-4.244-6.807-4.244-6.807s-0.662-0.961-4.09-1.089c-3.428-0.126-4.42-0.9-4.42-0.9L87.598,107.946z"/>
		</g>
		<g>
			<path fill-rule="evenodd" clip-rule="evenodd" fill="#FFFFFF" d="M70.723,141.168c0.256-0.755,0.772-0.848,1.399-0.841
				c2.458,0.021,4.917-0.004,7.375,0.021c0.354,0.006,0.94-0.271,1.007,0.371c0.044,0.423-0.379,0.522-0.757,0.63
				c-1.534,0.435-1.898,1.686-1.917,3.052c-0.041,3.031-0.013,6.064-0.013,9.4c0.595-0.976,1.04-1.743,1.519-2.487
				c2.744-4.256,6.864-5.514,11.634-5.263c1.887,0.1,3.748,0.964,5.655-0.04c0.537-0.281,0.843,0.188,0.825,0.767
				c-0.061,2.147-0.139,4.288-0.167,6.43c-0.005,0.463-0.205,0.672-0.583,0.774c-0.624,0.171-0.494-0.433-0.57-0.673
				c-1.362-4.297-3.047-4.571-7.752-4.384c-4.155,0.167-5.953,3.062-7.013,6.512c-1.204,3.922-1.193,7.908,0.206,11.824
				c1.654,4.644,7.139,5.186,10.073,4.198c1.454-0.491,2.282-1.581,2.244-3.215c-0.027-1.15-0.107-2.311,0.02-3.447
				c0.188-1.673-0.496-2.551-2.103-2.867c-0.373-0.074-1.022,0-0.855-0.796c0.137-0.667,0.622-0.439,0.982-0.442
				c2.51-0.018,5.02-0.022,7.531,0.002c0.344,0.004,0.898-0.281,0.965,0.427c0.049,0.519-0.357,0.55-0.694,0.661
				c-1.298,0.428-1.687,1.342-1.621,2.662c0.089,1.827-0.022,3.661,0.042,5.49c0.028,0.848-0.179,1.28-1.047,1.589
				c-2.201,0.782-4.376,1.659-6.303,3.031c-1.008,0.715-2.16,0.658-3.309,0.651c-5.833-0.043-10.229-3.928-10.953-9.701
				c-0.036-0.294-0.063-0.588-0.121-1.137c-0.752,0.794-1.298,1.464-1.941,2.022c-3.635,3.172-10.986,3.301-14.742,0.242
				c-1.744-1.422-2.687-3.292-2.692-5.574c-0.012-4.709-0.006-9.417-0.006-14.124c0-0.472,0.006-0.942-0.002-1.411
				c-0.052-3.096-0.418-3.567-3.332-4.349c0.172-0.534,0.553-0.702,1.083-0.663c2.716,0.198,5.434,0.15,8.151-0.007
				c0.308-0.019,0.682-0.109,0.74,0.327c0.041,0.29-0.214,0.463-0.484,0.526c-1.634,0.375-2.144,1.642-2.173,3.054
				c-0.115,5.38-0.462,10.775,0.176,16.133c0.381,3.214,3.18,5.341,6.66,5.464c3.73,0.133,6.539-1.723,7.267-4.854
				c0.131-0.549,0.146-1.137,0.148-1.707c0.012-4.34,0.007-8.683,0.007-13.021C75.282,142.67,74.469,141.717,70.723,141.168z"/>
		</g>
		<g>
			<polygon fill="#FFFFFF" points="77.069,20.899 2.097,36.293 2.097,17.728 77.064,2.333 152.042,17.728 152.042,36.293 			"/>
			<path fill="#FFFFFF" d="M77.064,4.375l72.978,14.984V33.84L77.874,19.022l-0.805-0.165l-0.805,0.165L4.097,33.84V19.359
				L77.064,4.375 M77.064,0.292L0.097,16.097v22.648L77.069,22.94l76.973,15.805V16.097L77.064,0.292L77.064,0.292z"/>
		</g>
	</g>
</g>
<g id="Layer_11">
</g>
</svg>
